ffprobe version n2.6.1 Copyright (c) 2007-2015 the FFmpeg developers
  built with gcc 4.8 (Ubuntu 4.8.2-19ubuntu1)
  configuration: --prefix=/opt/ffmpeg --extra-cflags=-I/opt/ffmpeg/include --extra-ldflags=-L/opt/ffmpeg/lib --extra-libs=-ldl --enable-gpl --enable-libass --enable-libfdk-aac --enable-libfreetype --enable-libmp3lame --enable-libtheora --enable-libvorbis --enable-libvpx --enable-libx264 --enable-libx265 --enable-nonfree
  libavutil      54. 20.100 / 54. 20.100
  libavcodec     56. 26.100 / 56. 26.100
  libavformat    56. 25.101 / 56. 25.101
  libavdevice    56.  4.100 / 56.  4.100
  libavfilter     5. 11.102 /  5. 11.102
  libswscale      3.  1.101 /  3.  1.101
  libswresample   1.  1.100 /  1.  1.100
  libpostproc    53.  3.100 / 53.  3.100
[mpeg4 @ 0x22d6680] Video uses a non-standard and wasteful way to store B-frames ('packed B-frames'). Consider using a tool like VirtualDub or avidemux to fix it.
Input #0, avi, from 'BigBuckBunny.avi':
  Duration: 00:09:56.46, start: 0.000000, bitrate: 5371 kb/s
    Stream #0:0: Video: mpeg4 (DX50 / 0x30355844), yuv420p, 1280x720 [SAR 1:1 DAR 16:9], 5201 kb/s, 24 fps, 24 tbr, 24 tbn, 30k tbc
    Stream #0:1: Audio: mp3 (U[0][0][0] / 0x0055), 48000 Hz, stereo, s16p, 160 kb/s
